/* XPM */
static char *ddc2153d805b42568ae576ab5bcbf4ef[] = {
/* columns rows colors chars-per-pixel */
"32 32 59 1 ",
"  c gray2",
". c gray3",
"X c #000539",
"o c #343434",
"O c #642121",
"+ c #000748",
"@ c #001F50",
"# c #002965",
"$ c #424542",
"% c #484848",
"& c #4E4E4E",
"* c gray34",
"= c #5F645F",
"- c #626762",
"; c #646964",
": c #6A6F6A",
"> c #6E736E",
", c #7F7F75",
"< c gray50",
"1 c #943D19",
"2 c #812A24",
"3 c #A3511F",
"4 c #B35D28",
"5 c #C47434",
"6 c #A35C41",
"7 c #F2A05D",
"8 c #F4B073",
"9 c #003283",
"0 c #003D93",
"q c #0065B7",
"w c #0083C2",
"e c #0092DF",
"r c #00A4E4",
"t c #00B6EA",
"y c #00C4E5",
"u c #00CEE8",
"i c #00D7ED",
"p c #00E7F0",
"a c #56E6FF",
"s c #808080",
"d c #848484",
"f c #8B8B8B",
"g c gray56",
"h c #919488",
"j c #AEAF93",
"k c #A5A5A5",
"l c #AAAAA3",
"z c #B9BAA0",
"x c #F6C093",
"c c #CACBB1",
"v c #B3EAEA",
"b c #A3EFFF",
"n c gray77",
"m c #CCCECC",
"M c #D7D7D7",
"N c #E6E7DD",
"B c #CCF1F1",
"V c #C2F4FF",
"C c white",
/* pixels */
"ddff::::ffffffffffff::::ffffgf--",
"ddff::::ffffffffffff::::ffffgg--",
"ddzz****>>zz......  **gggggggg&&",
"ddzz****>>zz......  **gggggggg&&",
"&&>>gggg**  33888811  >>gg>>**dd",
"&&>>gggg**  33888811  >>gg>>**dd",
";;******..,,77777788oo  ****ggdd",
";;******..,,77777788oo  ****ggdd",
"&&>>gggg..CC55xxxx44kk..>>>>>>dd",
"&&>>gggg..CC55xxxx44kk..>>>>>>dd",
"&&>>>>gg  CCOO666622kk..ggzz**&&",
"&&>>>>gg  CCOO666622kk..ggzz**&&",
";;****    CCCCCCCCnncc    &&ggdd",
";;****    CCCCCCCCnncc    &&ggdd",
";;>>..llCC++MMnnnn,,XXnn,,..zzdd",
";;>>..llCC++MMnnnn,,XXnn,,..zzdd",
";;**  CCCCvv@@00qqqq99MMmm  ggdd",
";;**  CCCCvv@@00qqqq99MMmm  ggdd",
"&&gg  CCCCCCBBaayyppii##mm  >>;;",
"&&gg  CCCCCCBBaayyppii##mm  >>;;",
"ddgg..NNBBCCBBrreerrrruunn  **&&",
"ddgg..NNBBCCBBrreerrrruunn  **&&",
";;>>..,,wwCCVVCCCCbbyyyy,,  ggdd",
";;>>..,,wwCCVVCCCCbbyyyy,,  ggdd",
"&&****  hh##mmrrttqq99hh  **zzdd",
"&&****  hh##mmrrttqq99hh  **zzdd",
"ddgggg  $$nnCCCCmmMMMM$$..****&&",
"ddgggg  $$nnCCCCmmMMMM$$..****&&",
"ddggzz>>......          ggggzz;;",
"ddggzz>>......          ggggzz;;",
"<<jjss%%==ssssss==%%%%%%==ssss<<",
"<<jjss%%==ssssss==%%%%%%==ssss<<"
};
