/* XPM */
static char *d933ce1e519248f7a5f857eb9b62ca01[] = {
/* columns rows colors chars-per-pixel */
"32 32 6 1 ",
"  c black",
". c #333030",
"X c gray34",
"o c #F41D1D",
"O c #F93030",
"+ c gray56",
/* pixels */
"XXX+++                     +++++",
"XXX+++                     +++++",
"XXX+++                     +++++",
"XXX+++  oooooooooooooooo   +++XX",
"XXX+++  oooooooooooooooo   +++XX",
"+++   ooooooooooooooooooooo   ++",
"+++   ooooooooooooooooooooo   ++",
"   oooooOOOOOOOOOOOOOOOOoooooo  ",
"   oooooOOOOOOOOOOOOOOOOoooooo  ",
"   oooooOOOOOOOOOOOOOOOOoooooo  ",
"   oooOOOOOOOOOOOOOOOOOOOOOooo  ",
"   oooOOOOOOOOOOOOOOOOOOOOOooo  ",
"   oooOOOOOOOOOOOOOOOOOOOOOooo  ",
"   oooOOOOOOOOOOOOOOOOOOOOOooo  ",
"   oooOOOOOOOOOOOOOOOOOOOOOooo  ",
"   oooOOOOOOOOOOOOOOOOOOOOOooo  ",
"   oooOOOOOOOOOOOOOOOO.....ooo  ",
"   oooOOOOOOOOOOOOOOOO.....ooo  ",
"   oooOOOOOOOOOOOOOOOO.....ooo  ",
"   oooOOOOOOOOOOOOOOOO.....ooo  ",
"   oooOOOOOOOOOOOOOOOO.....ooo  ",
"   oooOOOOOOOOOOOOOOOOOOOOOooo  ",
"   oooOOOOOOOOOOOOOOOOOOOOOooo  ",
"   oooOOOOOOOOOOOOOOOOOOOOOooo  ",
"   oooOOOOOOOOOOOOOOOOOOOOOooo  ",
"   oooOOOOOOOOOOOOOOOOOOOOOooo  ",
"   oooOOOOOOOOOOOOOOOOOOOOOooo  ",
"   oooOOOOOOOOOOOOOOOOOOOOOooo  ",
"   oooOOOOOOOOOOOOOOOOOOOOOooo  ",
"   oooOOOOOOOOOOOOOOOOOOOOOooo  ",
"   oooOOOOOOOOOOOOOOOOOOOOOooo  ",
"   oooOOOOOOOOOOOOOOOOOOOOOooo  "
};
