/* XPM */
static char *_8d080bbfd59453db9b647fbabb72f16[] = {
/* columns rows colors chars-per-pixel */
"32 32 15 1 ",
"  c #484848",
". c #4E4E4E",
"X c gray34",
"o c #5F645F",
"O c #626762",
"+ c #646964",
"@ c #6A6F6A",
"# c #6E736E",
"$ c gray50",
"% c #808080",
"& c #848484",
"* c #8B8B8B",
"= c gray56",
"- c #AEAF93",
"; c #B9BAA0",
/* pixels */
"&&**@@@@************@@@@****=*OO",
"&&**@@@@************@@@@****==OO",
"&&;;XXXX##;;;;==;;##XX========..",
"&&;;XXXX##;;;;==;;##XX========..",
"..##====XXXX######XXXX##==##XX&&",
"..##====XXXX######XXXX##==##XX&&",
"++XXXXXX==XXXXXXXX##XXXXXXXX==&&",
"++XXXXXX==XXXXXXXX##XXXXXXXX==&&",
"..##======XX======##====######&&",
"..##======XX======##====######&&",
"..####==##========;;======;;XX..",
"..####==##========;;======;;XX..",
"++XXXX####;;==####XX;;####..==&&",
"++XXXX####;;==####XX;;####..==&&",
"++##====####==XXXXXXXXXXXX;;;;&&",
"++##====####==XXXXXXXXXXXX;;;;&&",
"++XX##==XXXXXXXX========##XX==&&",
"++XX##==XXXXXXXX========##XX==&&",
"..==XXXX======##;;;;==####XX##++",
"..==XXXX======##;;;;==####XX##++",
"&&====;;======##XX######XXXXXX..",
"&&====;;======##XX######XXXXXX..",
"++##==XX;;====XXXXXXXXXXXX##==&&",
"++##==XX;;====XXXXXXXXXXXX##==&&",
"..XXXX##########======##XXXX;;&&",
"..XXXX##########======##XXXX;;&&",
"&&====####XXXX####====##==XXXX..",
"&&====####XXXX####====##==XXXX..",
"&&==;;##======########XX====;;++",
"&&==;;##======########XX====;;++",
"$$--%%  oo%%%%%%oo      oo%%%%$$",
"$$--%%  oo%%%%%%oo      oo%%%%$$"
};
