/* XPM */
static char *d11102b30fbd4d4c9d0e35a744565146xh2pQt7pKGv3QFzS[] = {
/* columns rows colors chars-per-pixel */
"32 32 36 1 ",
"  c #1D1D1C",
". c #1B2B3E",
"X c #682A19",
"o c #4E1740",
"O c #7C2C52",
"+ c #1B4B4F",
"@ c #00666A",
"# c #327962",
"$ c #4E4E4E",
"% c gray34",
"& c #5F645F",
"* c #626762",
"= c #646964",
"- c #6A6F6A",
"; c #6E736E",
": c gray50",
"> c #AC2027",
", c #A15735",
"< c #C44C26",
"1 c #E84444",
"2 c #CA4464",
"3 c #F17878",
"4 c #6AC81F",
"5 c #53A96F",
"6 c #72E27F",
"7 c #CB804A",
"8 c #DD8944",
"9 c #F6A371",
"0 c #F2D17C",
"q c #C1F567",
"w c #808080",
"e c #868686",
"r c #8B8B8B",
"t c gray56",
"y c #B9BAA0",
"u c #A4FFA6",
/* pixels */
"**rrrrrr----rrrrrrrrrrrr----rree",
"**rrrrrr----rrrrrrrrrrrr----rree",
"$$tttttttt%%;;yyttyyyy;;%%%%yyee",
"$$tttttttt%%;;yyttyyyy;;%%%%yyee",
"ee%%;;tt        ;;;;%%    tt;;$$",
"ee%%;;tt        ;;;;%%    tt;;$$",
"eett%%  33333322  %%  9999  %%==",
"eett%%  33333322  %%  9999  %%==",
"ee;;  332222333322  77XX7799  $$",
"ee;;  332222333322  77XX7799  $$",
"$$  3322OO22@@@@@@..XXqqXX77  $$",
"$$  3322OO22@@@@@@..XXqqXX77  $$",
"  3322OO33@@##55##..  44XX,,  ==",
"  3322OO33@@##55##..  44XX,,  ==",
"  33OO3322@@116611  ;;  XX,,  ==",
"  33OO3322@@116611  ;;  XX,,  ==",
"ee  332222@@5566uu  %%%%  ,,  ==",
"ee  332222@@5566uu  %%%%  ,,  ==",
"==  33OO22@@55####oo    XX,,  $$",
"==  33OO22@@55####oo    XX,,  $$",
"$$  33ooOO22++++++OO2222XX,,  ee",
"$$  33ooOO22++++++OO2222XX,,  ee",
"ee  66ooOO222222OOoo    XX,,  ==",
"ee  66ooOO222222OOoo    XX,,  ==",
"eeyy  oo<<880088>>  ;;;;  ,,  $$",
"eeyy  oo<<880088>>  ;;;;  ,,  $$",
"$$%%%%  22OO22OOOO  %%;;  ,,  ee",
"$$%%%%  22OO22OOOO  %%;;  ,,  ee",
"==yytt  22OO22OOOO  tttt  ,,  ee",
"==yytt  22OO22OOOO  tttt  ,,  ee",
"::ww  33OO22ooOOooOO  &&  ,,  ::",
"::ww  33OO22ooOOooOO  &&  ,,  ::"
};
