/* XPM */
static char *_48caa782f79493bfae176c1f2897b99jP0SmVfgozaQVzIT[] = {
/* columns rows colors chars-per-pixel */
"32 32 8 1 ",
"  c #1F1F20",
". c #46322B",
"X c #734B45",
"o c #706051",
"O c #A27C57",
"+ c #BA9982",
"@ c #DBA29A",
"# c #FFD5B8",
/* pixels */
"OO++++++++++++oo++++++@@++++++oo",
"OO++++++++++++oo++++++@@++++++oo",
"++++++++++++++oo++++++++++++++oo",
"++++++++++++++oo++++++++++++++oo",
"++++++++++++OOXX++++++++++++++oo",
"++++++++++++OOXX++++++++++++++oo",
"++++@@@@++@@@@OO++@@@@####@@@@OO",
"++++@@@@++@@@@OO++@@@@####@@@@OO",
"OOOOOOOOOOOOOO..OOOOOOOOOOOO++..",
"OOOOOOOOOOOOOO..OOOOOOOOOOOO++..",
"OOOOOOOOOOOOoo..OOOOOOOOOOOOOO  ",
"OOOOOOOOOOOOoo..OOOOOOOOOOOOOO  ",
"ooXXXXoooooooo  ooooooooXXoooo  ",
"ooXXXXoooooooo  ooooooooXXoooo  ",
"  ..  ..XX..            ....    ",
"  ..  ..XX..            ....    ",
"OOOO++OO..OO++OOOOOO++....OOOOOO",
"OOOO++OO..OO++OOOOOO++....OOOOOO",
"ooooooooXXOOOOoooooooo..  oooooo",
"ooooooooXXOOOOoooooooo..  oooooo",
"..ooooXX  oooooooooo..      ..XX",
"..ooooXX  oooooooooo..      ..XX",
"  ..          ......      ..    ",
"  ..          ......      ..    ",
"ooooOOOOOOOOOO  OOOOOOOOoo      ",
"ooooOOOOOOOOOO  OOOOOOOOoo      ",
"XXooooooooooOO  oooooooooooooo  ",
"XXooooooooooOO  oooooooooooooo  ",
"ooooooooXXoooo  ..XXoooooooo..  ",
"ooooooooXXoooo  ..XXoooooooo..  ",
"                                ",
"                                "
};
